# xmcd CD database file
#
# Track frame offsets:
#	150
#	23148
#	55372
#	79024
#	104529
#	152527
#
# Disc length: 2218 seconds
#
# Revision: 0
# Processed by: cddbd v1.5.2PL0 Copyright (c) Steve Scherf et al.
# Submitted via: CDex 1.70beta3
#
DISCID=4008a806
DTITLE=Elvin Jones - The Ultimate Elvin Jones
DYEAR=1968
DGENRE=Jazz
TTITLE0=In The Truth
TTITLE1=What Is This?
TTITLE2=Ascendant
TTITLE3=Yesterdays
TTITLE4=Sometimes Joie
TTITLE5=We'll Be Together Again
EXTD=YEAR: 1968
EXTT0=
EXTT1=
EXTT2=
EXTT3=
EXTT4=
EXTT5=
PLAYORDER=
